<mxfile host="Electron" agent="Mozilla/5.0 (Windows NT 10.0; Win64; x64) AppleWebKit/537.36 (KHTML, like Gecko) draw.io/25.0.2 Chrome/128.0.6613.186 Electron/32.2.5 Safari/537.36" version="25.0.2">
  <diagram name="第 1 页" id="mVULyVNzsdU4SGgxfIdT">
    <mxGraphModel dx="708" dy="435" grid="1" gridSize="10" guides="1" tooltips="1" connect="1" arrows="1" fold="1" page="1" pageScale="1" pageWidth="827" pageHeight="1169" math="0" shadow="0">
      <root>
        <mxCell id="0" />
        <mxCell id="1" parent="0" />
        <mxCell id="btbI0RH4BUarPwR5JEQQ-1" style="edgeStyle=orthogonalEdgeStyle;rounded=0;orthogonalLoop=1;jettySize=auto;html=1;exitX=1;exitY=0.5;exitDx=0;exitDy=0;entryX=0;entryY=0.5;entryDx=0;entryDy=0;" parent="1" source="btbI0RH4BUarPwR5JEQQ-2" target="btbI0RH4BUarPwR5JEQQ-4" edge="1">
          <mxGeometry relative="1" as="geometry">
            <mxPoint x="380" y="140" as="targetPoint" />
          </mxGeometry>
        </mxCell>
        <mxCell id="9Mbrvw8JRjcjRaU6Lnx4-1" value="1" style="edgeLabel;html=1;align=center;verticalAlign=middle;resizable=0;points=[];" parent="btbI0RH4BUarPwR5JEQQ-1" vertex="1" connectable="0">
          <mxGeometry y="-1" relative="1" as="geometry">
            <mxPoint as="offset" />
          </mxGeometry>
        </mxCell>
        <mxCell id="btbI0RH4BUarPwR5JEQQ-2" value="&lt;font color=&quot;#ffffff&quot; style=&quot;font-size: 18px;&quot;&gt;GC Roots&lt;/font&gt;" style="rounded=0;whiteSpace=wrap;html=1;fillColor=#000000;" parent="1" vertex="1">
          <mxGeometry x="150" y="110" width="120" height="60" as="geometry" />
        </mxCell>
        <mxCell id="btbI0RH4BUarPwR5JEQQ-3" style="edgeStyle=orthogonalEdgeStyle;rounded=0;orthogonalLoop=1;jettySize=auto;html=1;exitX=0.5;exitY=1;exitDx=0;exitDy=0;entryX=0.5;entryY=0;entryDx=0;entryDy=0;" parent="1" source="btbI0RH4BUarPwR5JEQQ-4" target="btbI0RH4BUarPwR5JEQQ-7" edge="1">
          <mxGeometry relative="1" as="geometry" />
        </mxCell>
        <mxCell id="9Mbrvw8JRjcjRaU6Lnx4-2" value="2" style="edgeLabel;html=1;align=center;verticalAlign=middle;resizable=0;points=[];" parent="btbI0RH4BUarPwR5JEQQ-3" vertex="1" connectable="0">
          <mxGeometry x="-0.0333" relative="1" as="geometry">
            <mxPoint as="offset" />
          </mxGeometry>
        </mxCell>
        <mxCell id="btbI0RH4BUarPwR5JEQQ-18" style="edgeStyle=orthogonalEdgeStyle;rounded=0;orthogonalLoop=1;jettySize=auto;html=1;exitX=1;exitY=0.5;exitDx=0;exitDy=0;entryX=0.5;entryY=0;entryDx=0;entryDy=0;dashed=1;curved=1;" parent="1" source="btbI0RH4BUarPwR5JEQQ-4" target="btbI0RH4BUarPwR5JEQQ-9" edge="1">
          <mxGeometry relative="1" as="geometry" />
        </mxCell>
        <mxCell id="9NVlxg4yuLp12nZjGFWq-1" value="4" style="edgeLabel;html=1;align=center;verticalAlign=middle;resizable=0;points=[];" vertex="1" connectable="0" parent="btbI0RH4BUarPwR5JEQQ-18">
          <mxGeometry x="0.0757" y="-10" relative="1" as="geometry">
            <mxPoint as="offset" />
          </mxGeometry>
        </mxCell>
        <mxCell id="btbI0RH4BUarPwR5JEQQ-4" value="&lt;font style=&quot;font-size: 18px;&quot; color=&quot;#ffffff&quot;&gt;A&lt;/font&gt;" style="ellipse;whiteSpace=wrap;html=1;aspect=fixed;fillColor=#000000;" parent="1" vertex="1">
          <mxGeometry x="340" y="110" width="60" height="60" as="geometry" />
        </mxCell>
        <mxCell id="btbI0RH4BUarPwR5JEQQ-5" style="rounded=0;orthogonalLoop=1;jettySize=auto;html=1;exitX=0;exitY=1;exitDx=0;exitDy=0;entryX=1;entryY=0;entryDx=0;entryDy=0;" parent="1" source="btbI0RH4BUarPwR5JEQQ-7" target="btbI0RH4BUarPwR5JEQQ-8" edge="1">
          <mxGeometry relative="1" as="geometry" />
        </mxCell>
        <mxCell id="9Mbrvw8JRjcjRaU6Lnx4-3" value="3" style="edgeLabel;html=1;align=center;verticalAlign=middle;resizable=0;points=[];" parent="btbI0RH4BUarPwR5JEQQ-5" vertex="1" connectable="0">
          <mxGeometry x="-0.0072" y="-1" relative="1" as="geometry">
            <mxPoint as="offset" />
          </mxGeometry>
        </mxCell>
        <mxCell id="btbI0RH4BUarPwR5JEQQ-7" value="&lt;font style=&quot;font-size: 18px;&quot;&gt;B&lt;/font&gt;" style="ellipse;whiteSpace=wrap;html=1;aspect=fixed;fillColor=#B3B3B3;" parent="1" vertex="1">
          <mxGeometry x="340" y="230" width="60" height="60" as="geometry" />
        </mxCell>
        <mxCell id="btbI0RH4BUarPwR5JEQQ-6" style="edgeStyle=none;rounded=0;orthogonalLoop=1;jettySize=auto;html=1;exitX=1;exitY=1;exitDx=0;exitDy=0;entryX=0;entryY=0;entryDx=0;entryDy=0;dashed=1;strokeColor=#FF3333;" parent="1" source="btbI0RH4BUarPwR5JEQQ-7" target="btbI0RH4BUarPwR5JEQQ-9" edge="1">
          <mxGeometry relative="1" as="geometry" />
        </mxCell>
        <mxCell id="btbI0RH4BUarPwR5JEQQ-17" value="&lt;font color=&quot;#ff3333&quot; style=&quot;font-size: 18px;&quot;&gt;×&lt;/font&gt;" style="edgeLabel;html=1;align=center;verticalAlign=middle;resizable=0;points=[];" parent="btbI0RH4BUarPwR5JEQQ-6" vertex="1" connectable="0">
          <mxGeometry x="0.0006" y="1" relative="1" as="geometry">
            <mxPoint y="1" as="offset" />
          </mxGeometry>
        </mxCell>
        <mxCell id="btbI0RH4BUarPwR5JEQQ-8" value="&lt;font style=&quot;font-size: 18px;&quot; color=&quot;#ffffff&quot;&gt;C&lt;/font&gt;" style="ellipse;whiteSpace=wrap;html=1;aspect=fixed;fillColor=#000000;" parent="1" vertex="1">
          <mxGeometry x="250" y="350" width="60" height="60" as="geometry" />
        </mxCell>
        <mxCell id="btbI0RH4BUarPwR5JEQQ-9" value="&lt;font style=&quot;font-size: 18px;&quot;&gt;D&lt;/font&gt;" style="ellipse;whiteSpace=wrap;html=1;aspect=fixed;fillColor=#FFFFFF;" parent="1" vertex="1">
          <mxGeometry x="440" y="350" width="60" height="60" as="geometry" />
        </mxCell>
        <mxCell id="btbI0RH4BUarPwR5JEQQ-10" value="" style="endArrow=classic;html=1;rounded=0;" parent="1" edge="1">
          <mxGeometry width="50" height="50" relative="1" as="geometry">
            <mxPoint x="570" y="164.5" as="sourcePoint" />
            <mxPoint x="640" y="164.5" as="targetPoint" />
          </mxGeometry>
        </mxCell>
        <mxCell id="btbI0RH4BUarPwR5JEQQ-11" value="&lt;span style=&quot;font-size: 18px;&quot;&gt;已访问&lt;/span&gt;" style="text;html=1;align=center;verticalAlign=middle;whiteSpace=wrap;rounded=0;" parent="1" vertex="1">
          <mxGeometry x="500" y="150" width="60" height="30" as="geometry" />
        </mxCell>
        <mxCell id="btbI0RH4BUarPwR5JEQQ-12" value="&lt;span style=&quot;font-size: 18px;&quot;&gt;未访问&lt;/span&gt;" style="text;html=1;align=center;verticalAlign=middle;whiteSpace=wrap;rounded=0;" parent="1" vertex="1">
          <mxGeometry x="500" y="210" width="60" height="30" as="geometry" />
        </mxCell>
        <mxCell id="btbI0RH4BUarPwR5JEQQ-13" value="" style="endArrow=classic;html=1;rounded=0;dashed=1;" parent="1" edge="1">
          <mxGeometry width="50" height="50" relative="1" as="geometry">
            <mxPoint x="570" y="224.5" as="sourcePoint" />
            <mxPoint x="640" y="224.5" as="targetPoint" />
          </mxGeometry>
        </mxCell>
        <mxCell id="btbI0RH4BUarPwR5JEQQ-19" value="&lt;span style=&quot;font-size: 18px;&quot;&gt;访问失效&lt;/span&gt;" style="text;html=1;align=center;verticalAlign=middle;whiteSpace=wrap;rounded=0;" parent="1" vertex="1">
          <mxGeometry x="480" y="270" width="80" height="30" as="geometry" />
        </mxCell>
        <mxCell id="btbI0RH4BUarPwR5JEQQ-20" value="" style="endArrow=classic;html=1;rounded=0;dashed=1;strokeColor=#FF3333;" parent="1" edge="1">
          <mxGeometry width="50" height="50" relative="1" as="geometry">
            <mxPoint x="570" y="284.5" as="sourcePoint" />
            <mxPoint x="640" y="284.5" as="targetPoint" />
          </mxGeometry>
        </mxCell>
      </root>
    </mxGraphModel>
  </diagram>
</mxfile>
